<svg width="594" height="136" viewBox="0 0 594 136" fill="none" xmlns="http://www.w3.org/2000/svg">
<g clip-path="url(#clip0_126_1144)">
<path d="M556.56 110C533.64 110 519 93.4435 519 68C519 42.5565 533.64 26 556.56 26C579.36 26 594 42.5565 594 68C594 93.4435 579.36 110 556.56 110ZM556.56 97.3391C573.24 97.3391 580.2 89.1826 580.2 68C580.2 46.8174 573.24 38.6609 556.56 38.6609C539.88 38.6609 532.8 46.8174 532.8 68C532.8 89.1826 539.88 97.3391 556.56 97.3391Z" fill="#0A0B0C" style="fill:#0A0B0C;fill:color(display-p3 0.0392 0.0431 0.0471);fill-opacity:1;"/>
<path d="M501.47 108.782C488.15 108.782 481.19 103.79 481.19 90.1554V59.2337H471.23V48.2772H481.43L494.15 30.2598V48.2772H512.15V59.2337H494.15V89.5467C494.15 95.8772 496.79 96.9728 504.83 96.9728H512.15V107.686C509.63 108.295 505.55 108.782 501.47 108.782Z" fill="#0A0B0C" style="fill:#0A0B0C;fill:color(display-p3 0.0392 0.0431 0.0471);fill-opacity:1;"/>
<path d="M422.181 108.782H409.221V48.2779H421.101V59.5997H421.581C424.341 53.1475 430.701 47.0605 442.341 47.0605C457.821 47.0605 464.781 57.0432 464.781 70.7997V108.782H451.821V73.7214C451.821 62.8866 448.461 58.3823 437.541 58.3823C426.981 58.3823 422.181 62.5214 422.181 73.8432V108.782Z" fill="#0A0B0C" style="fill:#0A0B0C;fill:color(display-p3 0.0392 0.0431 0.0471);fill-opacity:1;"/>
<path d="M397.021 40.6062H384.181L384.061 27.2148H397.021V40.6062ZM397.141 108.78H384.181V47.9105H397.141V108.78Z" fill="#0A0B0C" style="fill:#0A0B0C;fill:color(display-p3 0.0392 0.0431 0.0471);fill-opacity:1;"/>
<path d="M345.772 110C327.412 110 316.012 97.3388 316.012 78.4692C316.012 59.7214 327.412 47.0605 345.772 47.0605C364.012 47.0605 375.052 59.7214 375.052 78.4692C375.052 97.3388 364.012 110 345.772 110ZM345.772 98.3127C358.252 98.3127 362.572 92.104 362.572 78.4692C362.572 64.9562 358.252 58.7475 345.772 58.7475C333.172 58.7475 328.732 64.9562 328.732 78.4692C328.732 92.104 333.172 98.3127 345.772 98.3127Z" fill="#0A0B0C" style="fill:#0A0B0C;fill:color(display-p3 0.0392 0.0431 0.0471);fill-opacity:1;"/>
<path d="M261.185 108.78H248.225V27.2148H282.425C299.225 27.2148 311.585 37.3192 311.585 54.8496C311.585 72.3801 299.225 82.4844 282.425 82.4844H261.185V108.78ZM283.985 39.0235H261.185V70.6757H283.985C294.545 70.6757 298.745 66.5366 298.745 54.8496C298.745 43.1627 294.545 39.0235 283.985 39.0235Z" fill="#0A0B0C" style="fill:#0A0B0C;fill:color(display-p3 0.0392 0.0431 0.0471);fill-opacity:1;"/>
<path d="M205.68 110C182.76 110 174 99.4087 174 83.8261V81.8783H186.72V83.7043C186.72 93.9304 190.08 97.9478 205.92 97.9478C218.64 97.9478 223.68 94.7826 223.68 85.287C223.68 75.0609 219.24 72.0174 208.08 72.0174H192V61.0609H206.28C216.84 61.0609 220.92 58.3826 220.92 49.8609C220.92 41.3391 216.12 38.0522 204.84 38.0522C190.92 38.0522 186.72 42.0696 186.72 52.2957V53.2696H174V52.1739C174 36.5913 184.8 26 204.96 26C223.08 26 233.88 33.5478 233.88 47.7913C233.88 57.1652 229.2 64.1043 219 65.5652V66.0522C230.04 67.6348 236.76 74.9391 236.76 86.6261C236.76 102.33 224.28 110 205.68 110Z" fill="#0A0B0C" style="fill:#0A0B0C;fill:color(display-p3 0.0392 0.0431 0.0471);fill-opacity:1;"/>
<path d="M108.806 0H81.6113V27.2H108.806V108.8H81.6113V136H108.806L136 108.8V86.1333V52.1333V27.2L108.806 0Z" fill="#83A2FF" style="fill:#83A2FF;fill:color(display-p3 0.5137 0.6353 1.0000);fill-opacity:1;"/>
<path d="M27.1942 0H54.3887V27.2H27.1942V108.8H54.3887V136H27.1942L-0.000205994 108.8V85L13.5974 68L-0.000205994 51V27.2L27.1942 0Z" fill="#83A2FF" style="fill:#83A2FF;fill:color(display-p3 0.5137 0.6353 1.0000);fill-opacity:1;"/>
<rect x="54.3926" y="54.4023" width="27.1953" height="27.2007" fill="#83A2FF" style="fill:#83A2FF;fill:color(display-p3 0.5137 0.6353 1.0000);fill-opacity:1;"/>
</g>
<defs>
<clipPath id="clip0_126_1144">
<rect width="594" height="136" fill="white" style="fill:white;fill-opacity:1;"/>
</clipPath>
</defs>
</svg>
