<svg version="1.1" id="Layer_1" xmlns="http://www.w3.org/2000/svg" xmlns:xlink="http://www.w3.org/1999/xlink" x="0px" y="0px"
	 width="100%" viewBox="0 0 1024 720" enable-background="new 0 0 1024 720" xml:space="preserve">
<path fill="#000000" opacity="1.000000" stroke="none" 
	d="
M670.121948,695.233032 
	C660.253662,697.555969 650.646240,698.647766 640.949768,698.039612 
	C611.175903,696.171997 582.160461,701.179321 553.355042,707.720703 
	C538.894470,711.004517 524.613953,710.568542 510.246674,707.725220 
	C490.766846,703.869995 470.985077,702.346558 451.274292,700.418518 
	C444.382690,699.744446 437.322540,700.844238 430.337250,701.068848 
	C405.621826,701.863708 381.612335,697.035767 357.850342,691.163879 
	C350.774628,689.415405 343.869232,686.401428 337.420685,682.229004 
	C328.652466,676.555786 319.063629,672.157410 308.393158,670.769531 
	C299.086304,669.558960 290.343262,666.206116 281.548218,663.099426 
	C279.112549,662.238953 277.319580,660.522278 275.294830,659.068970 
	C266.770081,652.950500 257.909363,647.268494 248.593002,642.513062 
	C228.986298,632.505127 214.471359,617.889038 205.731949,597.640015 
	C201.253662,587.263916 199.491730,576.182739 198.300430,565.114197 
	C196.671280,549.977417 193.498505,535.188354 189.811615,520.484070 
	C184.249710,498.301697 179.901718,475.971741 179.927002,452.968231 
	C179.937500,443.429810 181.035385,434.001709 182.626740,424.653992 
	C185.168488,409.723724 184.571106,394.763824 183.371658,379.834412 
	C182.268158,366.099335 183.930267,352.576050 185.118240,338.979065 
	C186.176971,326.861298 187.216248,314.790375 190.915176,303.080322 
	C192.675644,297.507019 194.495453,291.989105 196.942856,286.685181 
	C204.048584,271.285919 205.716843,254.671585 207.908661,238.154297 
	C210.466309,218.880020 217.357056,201.344925 227.827530,184.844635 
	C237.720291,169.254761 250.313629,155.977081 261.897278,141.839432 
	C270.785187,130.991913 283.399750,126.634277 296.730194,124.034912 
	C303.916412,122.633652 311.040466,121.135300 317.918274,118.381790 
	C326.498260,114.946815 332.771118,108.866737 338.043304,101.735168 
	C345.478210,91.678040 354.694000,83.557655 364.735504,76.384552 
	C370.277405,72.425743 377.256012,71.405502 383.822510,71.194328 
	C401.644836,70.621208 418.672363,65.774200 435.992401,62.505497 
	C443.026611,61.177979 450.014954,59.647587 456.831818,57.319145 
	C462.575073,55.357407 468.008087,52.806973 472.840942,49.257595 
	C478.425354,45.156197 484.741791,42.850288 491.347473,42.436745 
	C501.473022,41.802849 510.984497,38.889481 520.625000,36.322006 
	C533.830566,32.805065 546.730652,33.564083 560.030457,36.905800 
	C575.048218,40.679184 588.940552,48.294712 604.617432,49.622013 
	C610.114258,50.087402 615.388916,51.267235 620.622498,53.223526 
	C628.042419,55.997063 633.795410,61.083797 639.405273,66.155647 
	C651.899536,77.451729 665.381531,87.414551 678.902039,97.387802 
	C690.546997,105.977516 702.085266,114.746780 713.227295,123.972221 
	C721.720215,131.004166 728.348755,139.775742 734.309326,149.130402 
	C740.666382,159.107407 748.350708,168.013840 757.028870,176.227478 
	C766.802307,185.477859 775.478394,195.871490 783.506653,206.728989 
	C791.232422,217.177567 797.508911,228.641495 804.798889,239.247330 
	C810.495850,247.535431 811.462769,255.338715 812.420166,264.455414 
	C814.610291,285.311279 817.798218,306.035950 825.933594,325.706665 
	C831.570984,339.337250 834.341797,353.767761 834.873352,368.538849 
	C835.362488,382.131561 838.454224,395.193268 841.814514,408.306488 
	C847.169556,429.203796 848.208618,450.471222 843.495300,471.608093 
	C839.480896,489.610840 834.391479,507.342163 832.604309,525.826965 
	C831.754761,534.613281 828.021362,542.850952 824.799744,551.041565 
	C822.234192,557.564331 815.579468,560.879883 811.393372,566.263794 
	C801.678162,578.759094 787.536255,586.296143 775.996704,596.838013 
	C767.174988,604.897034 756.582092,611.210327 744.510803,614.211731 
	C739.631409,615.424927 735.407288,617.670776 732.203491,622.088074 
	C729.612671,625.660156 725.850220,628.405579 722.501770,631.399475 
	C718.107910,635.328125 714.376465,639.817017 711.652222,644.997986 
	C706.383789,655.017944 700.972656,664.959167 696.551514,675.423523 
	C691.725708,686.845764 681.496155,691.591858 670.121948,695.233032 
M490.506134,171.884720 
	C481.668274,175.775391 474.886749,181.917480 470.348938,190.455734 
	C469.072083,192.858200 467.238281,193.902328 464.537720,194.497162 
	C430.934357,201.898697 401.710602,217.479279 376.834625,241.350800 
	C358.460785,258.982697 344.140320,279.347595 334.187134,302.752350 
	C326.397552,321.069397 321.661255,340.252197 320.487640,360.072662 
	C318.993347,385.308167 321.610626,410.170013 330.315308,434.128143 
	C331.235626,436.661194 331.021820,438.524414 329.397278,440.974091 
	C324.879852,447.786011 322.744415,455.588318 323.517456,463.723969 
	C325.270905,482.177979 343.003967,500.451813 365.524048,496.867188 
	C367.698364,496.521118 369.004517,497.712677 370.244080,499.070129 
	C387.329468,517.779968 407.779938,531.677124 430.881622,541.906067 
	C450.691620,550.677490 471.470398,556.259766 492.983612,556.450256 
	C558.643494,557.031616 624.311829,556.657471 689.976868,556.608337 
	C691.823853,556.606934 694.452515,557.607300 695.203674,555.064392 
	C695.855286,552.858093 693.574402,551.559631 692.139893,550.305786 
	C685.134460,544.182617 677.696289,538.515991 671.045288,532.036987 
	C664.445068,525.607361 657.052673,523.677246 648.061279,524.212280 
	C637.100464,524.864563 626.070862,524.398987 615.071594,524.327515 
	C613.353760,524.316345 611.451477,524.917847 609.876465,523.567688 
	C610.182068,522.001404 611.429199,521.414062 612.459778,520.637329 
	C635.671509,503.142273 654.428223,481.919281 666.924011,455.473297 
	C668.270142,452.624359 670.448120,451.369232 673.522400,450.893799 
	C681.723389,449.625610 689.499878,446.911743 695.360474,440.864319 
	C710.942200,424.785858 708.858093,399.543243 690.880249,386.127014 
	C687.705200,383.757629 686.461060,381.342255 686.582031,377.451416 
	C687.291382,354.635468 683.623596,332.530701 675.762756,311.059723 
	C664.656738,280.724884 646.851685,255.214050 622.294067,234.192764 
	C599.455505,214.643036 573.387390,201.710800 544.253723,194.939926 
	C539.837402,193.913544 537.052551,191.903900 535.144958,188.249817 
	C527.919922,174.409851 507.789062,165.467712 490.506134,171.884720 
z"/>
<path fill="#000000" opacity="1.000000" stroke="none" 
	d="
M654.270142,358.340820 
	C654.324890,364.805634 654.180420,370.809082 654.406006,376.798584 
	C654.531799,380.138916 653.485535,382.194397 650.575012,384.102631 
	C639.647522,391.267181 633.143311,401.301880 632.412109,414.592499 
	C632.021545,421.691254 634.432312,428.018005 638.752014,433.540131 
	C640.716187,436.051056 641.409119,438.235107 639.677856,441.180450 
	C630.280396,457.167206 619.914246,472.406311 606.021484,484.906555 
	C601.958862,488.561920 597.675659,491.994415 593.301636,495.273041 
	C590.743286,497.190643 590.425110,498.687897 592.380554,501.388458 
	C597.499268,508.457916 602.285645,515.768066 607.183716,522.951843 
	C605.446411,524.924927 603.492737,524.321167 601.773865,524.323181 
	C564.786743,524.367188 527.778992,525.113708 490.819397,524.105713 
	C465.306152,523.409729 441.874756,514.447571 420.347687,500.567535 
	C411.787659,495.048309 404.374268,488.189209 396.517822,481.840271 
	C393.715576,479.575745 392.700836,477.389648 394.437408,473.371460 
	C403.474518,452.460876 387.087006,425.856415 364.454834,424.414764 
	C361.104858,424.201385 359.709900,422.690399 358.943939,419.843414 
	C355.623749,407.502350 353.260071,395.092346 352.453918,382.222198 
	C350.992462,358.891144 354.987274,336.679688 363.644684,315.188538 
	C369.273010,301.216858 377.130432,288.547333 386.755585,276.919495 
	C406.422760,253.160141 431.102234,237.076172 460.587372,228.330856 
	C466.570465,226.556259 470.071075,222.839752 472.222382,217.130127 
	C473.523682,213.676376 474.417084,208.559891 478.458801,208.244537 
	C482.423096,207.935242 482.612915,213.194351 484.244507,216.119232 
	C489.081390,224.790131 498.668121,229.328400 508.333771,226.922607 
	C512.978638,225.766479 516.616089,226.099838 519.950317,230.028259 
	C522.525330,233.062073 526.997620,232.555847 531.416992,228.344681 
	C534.363037,225.537415 537.017517,225.550171 540.440430,226.489517 
	C563.729858,232.880585 584.607544,243.504974 602.893127,259.598663 
	C618.381775,273.230713 630.590942,289.145935 639.615356,307.489624 
	C646.897339,322.291443 651.694458,337.971741 653.427979,354.482483 
	C653.548218,355.628113 653.953125,356.743927 654.270142,358.340820 
M475.682953,256.431000 
	C468.007660,257.351593 460.831482,259.831512 453.872253,263.140320 
	C436.105743,271.587555 421.712006,284.115631 409.245575,299.163788 
	C393.166443,318.572784 385.123627,341.103149 383.755127,365.932404 
	C382.778717,383.647369 385.360291,401.074646 392.586334,417.479309 
	C396.248535,425.793396 399.715302,434.140198 408.829468,438.780701 
	C413.651581,441.235840 418.704773,444.985291 419.629272,451.210541 
	C420.374115,456.225983 423.050751,459.832458 426.606750,462.940613 
	C446.797974,480.589172 470.199982,490.478424 497.095062,491.624664 
	C511.523895,492.239594 525.737732,490.086029 539.186462,485.193146 
	C571.876526,473.300049 595.716309,451.606689 609.185547,419.140503 
	C611.235779,414.198792 609.502991,411.516846 604.033386,411.407135 
	C598.037292,411.286865 592.026001,411.595551 586.042053,411.299164 
	C581.577637,411.078003 579.072876,412.919067 577.013916,416.776398 
	C571.007996,428.027954 563.159546,437.854218 552.794922,445.442627 
	C537.261230,456.815460 519.692383,460.673462 500.630646,460.450836 
	C472.560577,460.122986 450.481934,448.258392 432.642975,427.334686 
	C422.956390,415.973175 418.670166,402.249176 415.675415,388.002869 
	C414.932922,384.470795 416.859100,383.295807 420.223785,383.375580 
	C427.049683,383.537445 433.889771,383.726440 440.707153,383.464966 
	C449.295624,383.135559 453.987274,378.766510 455.450317,370.413574 
	C456.698792,363.285950 451.960297,356.916992 444.744812,355.979370 
	C436.773010,354.943481 428.785065,355.421143 420.793823,355.605499 
	C415.931641,355.717682 415.107391,354.615173 416.352631,350.009613 
	C425.395813,316.562256 446.836212,295.625946 480.168518,286.527405 
	C486.074371,284.915283 490.396027,280.479126 494.816559,276.489655 
	C496.411957,275.049866 496.021973,272.800568 495.663513,270.788300 
	C494.192078,262.527893 487.714417,257.631073 475.682953,256.431000 
M580.803589,285.693298 
	C569.538147,274.802277 556.415710,266.983582 541.990784,260.878601 
	C533.694092,257.367249 525.624817,258.884186 517.490112,259.711670 
	C512.121826,260.257782 510.297180,263.976227 510.765503,269.380371 
	C511.601929,279.031281 517.977905,284.221741 526.048096,286.929077 
	C557.087769,297.342102 577.530640,317.669128 586.278564,349.408325 
	C587.808716,354.959961 587.506165,355.366638 581.638184,355.341156 
	C575.289917,355.313599 569.029785,355.686768 562.772034,357.019623 
	C557.766357,358.085815 554.419128,360.939209 551.873901,365.023926 
	C547.841919,371.494659 552.843201,383.059814 560.297180,383.266632 
	C577.447021,383.742371 594.617676,383.527496 611.779419,383.459564 
	C614.902039,383.447205 617.334656,381.871887 617.525879,378.392792 
	C618.398315,362.515472 617.582092,346.805725 611.903259,331.734467 
	C605.285156,314.170685 595.067078,298.980988 580.803589,285.693298 
M523.303955,376.670349 
	C523.475464,376.028381 523.660278,375.389679 523.816589,374.744019 
	C525.959473,365.891327 521.867554,356.197540 514.053528,351.606018 
	C505.662781,346.675629 495.889038,347.677612 488.666138,354.208618 
	C482.207825,360.048340 480.040649,370.434845 483.890533,378.499451 
	C487.643768,386.361694 493.886597,390.852722 502.779327,390.866180 
	C512.438538,390.880768 519.130310,386.177551 523.303955,376.670349 
z"/>
<path fill="#000000" opacity="1.000000" stroke="none" 
	d="
M664.144653,438.101562 
	C659.873901,442.983612 656.083984,443.178833 651.162781,439.901367 
	C647.549683,437.495087 648.672302,434.899384 650.141357,432.258698 
	C652.016357,428.888275 654.185547,431.301727 655.862610,432.514343 
	C658.523926,434.438507 662.022949,435.023376 664.144653,438.101562 
z"/>
</svg>