<?xml version="1.0" encoding="utf-8"?>
<!-- Generator: Adobe Illustrator 24.3.0, SVG Export Plug-In . SVG Version: 6.00 Build 0)  -->
<svg version="1.1" id="Layer_1" xmlns="http://www.w3.org/2000/svg" xmlns:xlink="http://www.w3.org/1999/xlink" x="0px" y="0px"
	 viewBox="0 0 841.89 595.28" style="enable-background:new 0 0 841.89 595.28;" xml:space="preserve">
<style type="text/css">
	.st0{fill:#393972;}
	.st1{fill:#735FA8;}
	.st2{fill:#FFFFFF;}
</style>
<g>
	<g>
		<g>
			<path class="st0" d="M474.28,274.69H331.05c1.68,16.04,8.48,29.28,20.42,39.72c11.93,10.45,26.02,15.57,42.24,15.39
				c25.18-0.37,43.17-12.03,53.99-34.97h22.66c-5.97,17.16-16.04,30.77-30.21,40.84c-14.18,10.07-29.93,15.2-47.28,15.39
				c-21.82,0.38-41.12-7.6-57.91-23.92c-16.78-16.32-25.36-35.76-25.74-58.33c-0.56-23.87,7.88-44.43,25.32-61.68
				c17.44-17.25,38-25.22,61.68-23.92c21.26,1.31,39.72,10.07,55.39,26.3c15.11,16.04,22.66,33.94,22.66,53.71V274.69z
				 M453.3,255.11c-2.99-14.92-9.98-26.99-20.98-36.23c-11.01-9.23-24.15-13.94-39.44-14.13c-15.29-0.18-28.67,4.38-40.14,13.71
				c-11.47,9.33-18.7,21.54-21.68,36.65H453.3z"/>
		</g>
		<g>
			<g>
				<path class="st1" d="M384.26,397.04c-0.55-0.04-1.11-0.08-1.66-0.13c-0.3-0.02-0.6-0.05-0.89-0.08
					c-31.98-2.91-61.59-17.58-83.4-41.32c-21.97-23.92-34.07-54.98-34.07-87.48c0-34.55,13.45-67.04,37.89-91.47
					c24.43-24.43,56.91-37.89,91.46-37.89c34.55,0,67.04,13.45,91.47,37.89c24.43,24.43,37.89,56.92,37.89,91.47
					c0,42.21-20.67,81.86-55.3,106.06l-12.71-18.18c28.7-20.06,45.83-52.92,45.83-87.89c0-59.1-48.08-107.18-107.18-107.18
					c-59.1,0-107.17,48.08-107.17,107.18c0,55.84,41.88,101.72,97.41,106.72l0.28,0.03c0.04,0,0.09,0.01,0.13,0.01l0.19,0.01
					c0.44,0.04,0.89,0.08,1.33,0.11L384.26,397.04z"/>
			</g>
			<g>
				<g>
					<g>
						<circle class="st0" cx="393.42" cy="265.34" r="25.74"/>
					</g>
				</g>
				<g>
					<circle class="st2" cx="393.42" cy="265.34" r="15.43"/>
				</g>
			</g>
			<g>
				<g>
					<g>
						<circle class="st1" cx="393.58" cy="149.76" r="25.74"/>
					</g>
				</g>
				<g>
					<circle class="st2" cx="393.58" cy="149.76" r="15.43"/>
				</g>
			</g>
			<g>
				<g>
					<g>
						<circle class="st1" cx="292.46" cy="329.56" r="25.74"/>
					</g>
				</g>
				<g>
					<circle class="st2" cx="292.46" cy="329.56" r="15.43"/>
				</g>
			</g>
			<g>
				<g>
					<g>
						<circle class="st1" cx="510.72" cy="297.64" r="25.74"/>
					</g>
				</g>
				<g>
					<circle class="st2" cx="510.72" cy="297.64" r="15.43"/>
				</g>
			</g>
			<g>
				<polygon class="st1" points="385.54,374.9 505.5,374.9 531.42,397.03 384.25,397.03 				"/>
			</g>
		</g>
	</g>
	<g>
		<path class="st1" d="M243.7,466.83c-2.17-1.05-3.83-2.57-4.97-4.56c-1.14-1.99-1.72-4.39-1.72-7.2v-31.21
			c0-2.81,0.57-5.21,1.72-7.22c1.14-2,2.8-3.52,4.97-4.56c2.17-1.04,4.78-1.56,7.82-1.56s5.65,0.52,7.82,1.56
			c2.17,1.04,3.83,2.56,4.97,4.56c1.14,2,1.72,4.41,1.72,7.22v31.21c0,2.81-0.57,5.21-1.72,7.2c-1.14,1.99-2.8,3.51-4.97,4.56
			c-2.17,1.05-4.78,1.58-7.82,1.58S245.87,467.88,243.7,466.83z M254.08,458.15c0.72-0.39,1.25-0.95,1.62-1.68
			c0.36-0.73,0.55-1.61,0.55-2.65v-28.79c0-1.02-0.18-1.89-0.55-2.61c-0.36-0.73-0.9-1.29-1.62-1.68c-0.72-0.39-1.57-0.58-2.56-0.58
			c-0.99,0-1.83,0.2-2.54,0.58c-0.7,0.39-1.24,0.95-1.6,1.68c-0.36,0.73-0.55,1.6-0.55,2.61v28.79c0,1.04,0.18,1.93,0.55,2.65
			c0.36,0.73,0.9,1.29,1.6,1.68s1.55,0.59,2.54,0.59C252.51,458.74,253.36,458.54,254.08,458.15z M248.2,455.26l6.28-7.14
			l16.81,15.96l-6.24,7.18L248.2,455.26z"/>
		<path class="st1" d="M279.16,466.71c-2.04-1.13-3.6-2.77-4.66-4.92c-1.07-2.15-1.6-4.71-1.6-7.7V411.1h9.71v43.26
			c0,1.38,0.34,2.45,1.01,3.22c0.68,0.77,1.61,1.15,2.81,1.15c1.22,0,2.18-0.38,2.87-1.15c0.69-0.77,1.03-1.84,1.03-3.22V411.1h9.71
			v42.99c0,2.99-0.54,5.56-1.62,7.7c-1.08,2.15-2.64,3.78-4.68,4.92c-2.04,1.13-4.48,1.7-7.31,1.7
			C283.63,468.41,281.2,467.85,279.16,466.71z"/>
		<path class="st1" d="M314.83,411.1h6.79l13.54,56.72h-9.6l-7.33-37.18l-7.33,37.18h-9.6L314.83,411.1z M310.5,449.96h15.45v9.05
			H310.5V449.96z"/>
		<path class="st1" d="M339.37,411.1h7.61l13.34,37.84l-1.05,1.52V411.1h8.82v56.68h-7.69l-13.19-35.66l1.01-1.56v37.22h-8.86V411.1
			z"/>
		<path class="st1" d="M374.25,411.1h28.4v9.28h-28.4V411.1z M383.61,415.86h9.67v51.96h-9.67V415.86z"/>
		<path class="st1" d="M411.33,466.71c-2.04-1.13-3.6-2.77-4.66-4.92c-1.07-2.15-1.6-4.71-1.6-7.7V411.1h9.71v43.26
			c0,1.38,0.34,2.45,1.01,3.22c0.68,0.77,1.61,1.15,2.81,1.15c1.22,0,2.18-0.38,2.87-1.15c0.69-0.77,1.03-1.84,1.03-3.22V411.1h9.71
			v42.99c0,2.99-0.54,5.56-1.62,7.7c-1.08,2.15-2.64,3.78-4.68,4.92c-2.04,1.13-4.48,1.7-7.31,1.7
			C415.8,468.41,413.37,467.85,411.33,466.71z"/>
		<path class="st1" d="M466.08,411.1h9.05v56.72h-8.62v-39.6l0.58,2.5l-8.23,27.07h-4.84l-8.23-26.29l0.78-3.28v39.6h-8.82V411.1
			h9.28l9.4,30.82L466.08,411.1z"/>
		<path class="st0" d="M482.07,411.1h9.67v56.72h-9.67V411.1z M486.37,411.1h20.91v9.44h-20.91V411.1z M486.37,434.94h18.96v9.4
			h-18.96V434.94z M486.37,458.39h20.91v9.44h-20.91V458.39z"/>
		<path class="st0" d="M512.27,411.1h9.67v56.72h-9.67V411.1z M518.71,458.54h7.26c1.3,0,2.3-0.4,3-1.19
			c0.7-0.79,1.05-1.9,1.05-3.34v-29.1c0-1.43-0.35-2.54-1.05-3.34c-0.7-0.79-1.7-1.19-3-1.19h-7.26v-9.28h8.23
			c2.7,0,5.02,0.5,6.94,1.5c1.92,1,3.39,2.46,4.41,4.37c1.01,1.91,1.52,4.19,1.52,6.85v31.29c0,2.65-0.51,4.93-1.52,6.85
			c-1.01,1.91-2.49,3.37-4.43,4.37c-1.94,1-4.26,1.5-6.96,1.5h-8.19V458.54z"/>
		<path class="st0" d="M573.52,437.2v16.97c0,2.96-0.55,5.51-1.66,7.65c-1.11,2.13-2.71,3.76-4.82,4.9c-2.11,1.13-4.63,1.7-7.57,1.7
			c-2.99,0-5.55-0.55-7.69-1.64c-2.13-1.09-3.76-2.68-4.9-4.76c-1.13-2.08-1.7-4.56-1.7-7.45v-29.41c0-3.04,0.55-5.66,1.66-7.86
			c1.1-2.2,2.71-3.87,4.82-5.03c2.11-1.16,4.63-1.74,7.57-1.74c2.89,0,5.36,0.56,7.43,1.68c2.07,1.12,3.65,2.74,4.74,4.88
			c1.09,2.13,1.64,4.68,1.64,7.65v4.37h-9.95v-4.37c0-0.91-0.16-1.7-0.47-2.36c-0.31-0.66-0.76-1.17-1.35-1.52
			c-0.59-0.35-1.27-0.53-2.05-0.53c-0.86,0-1.61,0.2-2.24,0.58c-0.64,0.39-1.13,0.95-1.46,1.68c-0.34,0.73-0.51,1.59-0.51,2.57
			v29.41c0,0.81,0.18,1.52,0.53,2.13c0.35,0.61,0.86,1.08,1.54,1.4c0.68,0.33,1.47,0.49,2.38,0.49c0.94,0,1.75-0.17,2.44-0.51
			c0.69-0.34,1.22-0.83,1.58-1.48c0.36-0.65,0.55-1.43,0.55-2.34v-7.76h-4.76v-9.28H573.52z"/>
		<path class="st0" d="M579.68,411.1h9.67v56.72h-9.67V411.1z M583.97,411.1h20.91v9.44h-20.91V411.1z M583.97,434.94h18.96v9.4
			h-18.96V434.94z M583.97,458.39h20.91v9.44h-20.91V458.39z"/>
	</g>
</g>
</svg>
