<?xml version="1.0" encoding="utf-8"?>
<!-- Generator: Adobe Illustrator 24.3.0, SVG Export Plug-In . SVG Version: 6.00 Build 0)  -->
<svg version="1.1" id="Layer_1" xmlns="http://www.w3.org/2000/svg" xmlns:xlink="http://www.w3.org/1999/xlink" x="0px" y="0px"
	 viewBox="0 0 841.89 595.28" style="enable-background:new 0 0 841.89 595.28;" xml:space="preserve">
<style type="text/css">
	.st0{fill:#393972;}
	.st1{fill:#735FA8;}
	.st2{fill:#FFFFFF;}
</style>
<g>
	<g>
		<g>
			<path class="st0" d="M199.2,306h-84.59c0.99,9.47,5.01,17.29,12.06,23.46c7.05,6.17,15.37,9.2,24.95,9.09
				c14.87-0.22,25.5-7.1,31.89-20.65h13.38c-3.53,10.13-9.47,18.17-17.84,24.12c-8.37,5.95-17.68,8.98-27.92,9.09
				c-12.89,0.22-24.29-4.49-34.2-14.13c-9.91-9.64-14.98-21.12-15.2-34.45c-0.33-14.1,4.65-26.24,14.95-36.43
				c10.3-10.19,22.44-14.9,36.43-14.13c12.56,0.77,23.46,5.95,32.71,15.53c8.92,9.47,13.38,20.05,13.38,31.72V306z M186.81,294.44
				c-1.76-8.81-5.89-15.94-12.39-21.4c-6.5-5.45-14.27-8.23-23.3-8.34c-9.03-0.11-16.93,2.59-23.71,8.1
				c-6.77,5.51-11.04,12.72-12.8,21.64H186.81z"/>
		</g>
		<g>
			<g>
				<path class="st1" d="M146.03,378.26c-0.33-0.02-0.65-0.05-0.98-0.08c-0.18-0.01-0.35-0.03-0.52-0.05
					c-18.89-1.72-36.38-10.38-49.26-24.4c-12.98-14.13-20.12-32.47-20.12-51.67c0-20.41,7.95-39.59,22.38-54.02
					c14.43-14.43,33.61-22.38,54.02-22.38c20.41,0,39.59,7.95,54.02,22.38c14.43,14.43,22.38,33.61,22.38,54.02
					c0,24.93-12.21,48.34-32.66,62.64l-7.5-10.73c16.95-11.85,27.07-31.25,27.07-51.91c0-34.9-28.4-63.3-63.3-63.3
					c-34.9,0-63.3,28.4-63.3,63.3c0,32.98,24.73,60.08,57.53,63.03l0.17,0.02c0.03,0,0.05,0.01,0.08,0.01l0.11,0.01
					c0.26,0.02,0.52,0.05,0.79,0.06L146.03,378.26z"/>
			</g>
			<g>
				<g>
					<g>
						<circle class="st0" cx="151.45" cy="300.48" r="15.2"/>
					</g>
				</g>
				<g>
					<circle class="st2" cx="151.45" cy="300.48" r="9.11"/>
				</g>
			</g>
			<g>
				<g>
					<g>
						<circle class="st1" cx="151.54" cy="232.22" r="15.2"/>
					</g>
				</g>
				<g>
					<circle class="st2" cx="151.54" cy="232.22" r="9.11"/>
				</g>
			</g>
			<g>
				<g>
					<g>
						<circle class="st1" cx="91.81" cy="338.41" r="15.2"/>
					</g>
				</g>
				<g>
					<circle class="st2" cx="91.81" cy="338.41" r="9.11"/>
				</g>
			</g>
			<g>
				<g>
					<g>
						<circle class="st1" cx="220.72" cy="319.56" r="15.2"/>
					</g>
				</g>
				<g>
					<circle class="st2" cx="220.72" cy="319.56" r="9.11"/>
				</g>
			</g>
			<g>
				<polygon class="st1" points="146.79,365.19 217.64,365.19 232.95,378.26 146.03,378.26 				"/>
			</g>
		</g>
	</g>
	<g>
		<path class="st1" d="M261.59,346.73c-3.04-1.47-5.36-3.6-6.96-6.38c-1.6-2.78-2.4-6.14-2.4-10.07v-43.65
			c0-3.93,0.8-7.29,2.4-10.09c1.6-2.8,3.92-4.93,6.96-6.38c3.04-1.46,6.68-2.18,10.94-2.18s7.9,0.73,10.94,2.18
			c3.04,1.45,5.36,3.58,6.96,6.38c1.6,2.8,2.4,6.16,2.4,10.09v43.65c0,3.93-0.8,7.28-2.4,10.07c-1.6,2.78-3.92,4.91-6.96,6.38
			c-3.04,1.47-6.68,2.21-10.94,2.21S264.63,348.2,261.59,346.73z M276.11,334.59c1-0.55,1.75-1.33,2.26-2.35
			c0.51-1.02,0.76-2.25,0.76-3.71v-40.26c0-1.42-0.25-2.64-0.76-3.66c-0.51-1.02-1.26-1.8-2.26-2.35c-1-0.54-2.19-0.82-3.57-0.82
			c-1.38,0-2.56,0.27-3.55,0.82c-0.98,0.55-1.73,1.33-2.24,2.35c-0.51,1.02-0.76,2.24-0.76,3.66v40.26c0,1.46,0.25,2.69,0.76,3.71
			c0.51,1.02,1.25,1.8,2.24,2.35c0.98,0.55,2.16,0.82,3.55,0.82C273.91,335.41,275.11,335.13,276.11,334.59z M267.89,330.55
			l8.78-9.98l23.52,22.31l-8.73,10.04L267.89,330.55z"/>
		<path class="st1" d="M311.19,346.56c-2.86-1.58-5.03-3.87-6.52-6.87c-1.49-3-2.24-6.59-2.24-10.78v-60.13h13.59v60.51
			c0,1.93,0.47,3.43,1.42,4.5c0.95,1.07,2.25,1.61,3.93,1.61c1.71,0,3.05-0.54,4.01-1.61c0.96-1.07,1.45-2.57,1.45-4.5v-60.51h13.59
			v60.13c0,4.18-0.76,7.77-2.26,10.78c-1.51,3-3.69,5.29-6.55,6.87c-2.86,1.58-6.27,2.37-10.23,2.37
			C317.44,348.94,314.04,348.15,311.19,346.56z"/>
		<path class="st1" d="M361.08,268.79h9.49l18.93,79.33h-13.42l-10.26-52l-10.26,52h-13.42L361.08,268.79z M355.03,323.13h21.61
			v12.66h-21.61V323.13z"/>
		<path class="st1" d="M395.4,268.79h10.64l18.66,52.92l-1.47,2.13v-55.05h12.33v79.28h-10.75l-18.44-49.87l1.42-2.18v52.05H395.4
			V268.79z"/>
		<path class="st1" d="M444.18,268.79h39.72v12.99h-39.72V268.79z M457.28,275.44h13.53v72.68h-13.53V275.44z"/>
		<path class="st1" d="M496.04,346.56c-2.86-1.58-5.03-3.87-6.52-6.87c-1.49-3-2.24-6.59-2.24-10.78v-60.13h13.59v60.51
			c0,1.93,0.47,3.43,1.42,4.5c0.95,1.07,2.25,1.61,3.93,1.61c1.71,0,3.05-0.54,4.01-1.61c0.96-1.07,1.45-2.57,1.45-4.5v-60.51h13.59
			v60.13c0,4.18-0.76,7.77-2.26,10.78c-1.51,3-3.69,5.29-6.55,6.87c-2.86,1.58-6.27,2.37-10.23,2.37
			C502.29,348.94,498.9,348.15,496.04,346.56z"/>
		<path class="st1" d="M572.62,268.79h12.66v79.33h-12.06v-55.38l0.82,3.49l-11.51,37.87h-6.77l-11.51-36.78l1.09-4.58v55.38h-12.33
			v-79.33h12.99l13.15,43.1L572.62,268.79z"/>
		<path class="st0" d="M594.99,268.79h13.53v79.33h-13.53V268.79z M600.99,268.79h29.24v13.2h-29.24V268.79z M600.99,302.12h26.52
			v13.15h-26.52V302.12z M600.99,334.92h29.24v13.2h-29.24V334.92z"/>
		<path class="st0" d="M637.22,268.79h13.53v79.33h-13.53V268.79z M646.22,335.13h10.15c1.82,0,3.22-0.55,4.2-1.66
			s1.47-2.66,1.47-4.67v-40.7c0-2-0.49-3.55-1.47-4.67c-0.98-1.11-2.38-1.66-4.2-1.66h-10.15v-12.99h11.51c3.78,0,7.02,0.7,9.71,2.1
			c2.69,1.4,4.75,3.44,6.17,6.11c1.42,2.67,2.13,5.87,2.13,9.58v43.76c0,3.71-0.71,6.9-2.13,9.58c-1.42,2.67-3.48,4.71-6.19,6.11
			c-2.71,1.4-5.96,2.1-9.74,2.1h-11.46V335.13z"/>
		<path class="st0" d="M722.88,305.29v23.73c0,4.15-0.77,7.71-2.32,10.69c-1.55,2.98-3.79,5.26-6.74,6.85
			c-2.95,1.58-6.47,2.37-10.58,2.37c-4.18,0-7.77-0.76-10.75-2.29c-2.98-1.53-5.26-3.75-6.85-6.66c-1.58-2.91-2.37-6.38-2.37-10.42
			v-41.14c0-4.26,0.77-7.92,2.32-10.99c1.54-3.07,3.79-5.42,6.74-7.04c2.95-1.62,6.47-2.43,10.58-2.43c4.04,0,7.5,0.78,10.39,2.35
			c2.89,1.56,5.1,3.84,6.63,6.82c1.53,2.98,2.29,6.55,2.29,10.69v6.11h-13.91v-6.11c0-1.27-0.22-2.37-0.65-3.3
			c-0.44-0.93-1.06-1.64-1.88-2.13c-0.82-0.49-1.77-0.74-2.87-0.74c-1.2,0-2.25,0.27-3.14,0.82c-0.89,0.55-1.57,1.33-2.05,2.35
			c-0.47,1.02-0.71,2.22-0.71,3.6v41.14c0,1.13,0.25,2.12,0.74,2.97c0.49,0.86,1.21,1.51,2.16,1.96c0.95,0.46,2.05,0.68,3.33,0.68
			c1.31,0,2.44-0.24,3.41-0.71c0.96-0.47,1.7-1.16,2.21-2.07c0.51-0.91,0.76-2,0.76-3.27v-10.86h-6.66v-12.98H722.88z"/>
		<path class="st0" d="M731.5,268.79h13.53v79.33H731.5V268.79z M737.5,268.79h29.24v13.2H737.5V268.79z M737.5,302.12h26.52v13.15
			H737.5V302.12z M737.5,334.92h29.24v13.2H737.5V334.92z"/>
	</g>
</g>
</svg>
