<?xml version="1.0" encoding="utf-8"?>
<!-- Generator: Adobe Illustrator 24.3.0, SVG Export Plug-In . SVG Version: 6.00 Build 0)  -->
<svg version="1.1" id="Layer_1" xmlns="http://www.w3.org/2000/svg" xmlns:xlink="http://www.w3.org/1999/xlink" x="0px" y="0px"
	 viewBox="0 0 841.89 595.28" style="enable-background:new 0 0 841.89 595.28;" xml:space="preserve">
<style type="text/css">
	.st0{fill:#393972;}
	.st1{fill:#735FA8;}
	.st2{fill:#FFFFFF;}
</style>
<g>
	<g>
		<path class="st0" d="M506.97,314.12H340.31c1.95,18.67,9.87,34.07,23.76,46.22c13.88,12.16,30.27,18.12,49.15,17.9
			c29.3-0.43,50.23-14,62.82-40.69h26.37c-6.95,19.97-18.67,35.81-35.15,47.52c-16.49,11.72-34.83,17.69-55.01,17.9
			c-25.39,0.44-47.85-8.84-67.38-27.83c-19.53-18.99-29.51-41.61-29.95-67.87c-0.65-27.77,9.16-51.7,29.46-71.77
			c20.29-20.07,44.21-29.35,71.77-27.83c24.74,1.52,46.22,11.72,64.45,30.6c17.58,18.67,26.37,39.5,26.37,62.5V314.12z
			 M482.56,291.33c-3.47-17.36-11.61-31.41-24.41-42.15c-12.81-10.74-28.11-16.22-45.9-16.44c-17.8-0.21-33.36,5.1-46.71,15.95
			c-13.35,10.85-21.76,25.06-25.23,42.64H482.56z"/>
	</g>
	<g>
		<g>
			<path class="st1" d="M402.22,456.48c-0.64-0.04-1.29-0.1-1.93-0.15c-0.35-0.03-0.69-0.06-1.03-0.09
				c-37.21-3.39-71.67-20.46-97.05-48.08c-25.57-27.83-39.65-63.98-39.65-101.79c0-40.2,15.66-78,44.08-106.43
				c28.43-28.43,66.22-44.08,106.43-44.08c40.2,0,78,15.66,106.43,44.08c28.43,28.43,44.08,66.23,44.08,106.43
				c0,49.11-24.06,95.25-64.35,123.41l-14.78-21.15c33.39-23.34,53.33-61.57,53.33-102.27c0-68.77-55.94-124.71-124.71-124.71
				c-68.76,0-124.7,55.94-124.7,124.71c0,64.98,48.73,118.37,113.34,124.18l0.33,0.03c0.05,0.01,0.1,0.01,0.15,0.01l0.22,0.02
				c0.52,0.04,1.03,0.09,1.55,0.12L402.22,456.48z"/>
		</g>
		<g>
			<g>
				<g>
					<circle class="st0" cx="412.89" cy="303.24" r="29.95"/>
				</g>
			</g>
			<g>
				<circle class="st2" cx="412.89" cy="303.24" r="17.95"/>
			</g>
		</g>
		<g>
			<g>
				<g>
					<circle class="st1" cx="413.07" cy="168.75" r="29.95"/>
				</g>
			</g>
			<g>
				<circle class="st2" cx="413.07" cy="168.75" r="17.95"/>
			</g>
		</g>
		<g>
			<g>
				<g>
					<circle class="st1" cx="295.41" cy="377.97" r="29.95"/>
				</g>
			</g>
			<g>
				<circle class="st2" cx="295.41" cy="377.97" r="17.95"/>
			</g>
		</g>
		<g>
			<g>
				<g>
					<circle class="st1" cx="549.37" cy="340.82" r="29.95"/>
				</g>
			</g>
			<g>
				<circle class="st2" cx="549.37" cy="340.82" r="17.95"/>
			</g>
		</g>
		<g>
			<polygon class="st1" points="403.72,430.72 543.3,430.72 573.46,456.47 402.22,456.47 			"/>
		</g>
	</g>
</g>
</svg>
